{"title":"K-PAX*2001*[DVD9][PAL][ENG, POL]","uid":5857683,"size":7708049408,"categoryP":"video","categoryS":"movies_dvdr","magnet":"?xt=urn:btih:e9994553f4367675f025eb9b9deb2f3540ff4f6c&amp;dn=K-PAX%2A2001%2A%5BDVD9%5D%5BPAL%5D%5BENG%2C+POL%5D&amp;tr=udp%3A%2F%2Ftracker.openbittorrent.com%3A80&amp;tr=udp%3A%2F%2Fopen.demonii.com%3A1337&amp;tr=udp%3A%2F%2Ftracker.coppersurfer.tk%3A6969&amp;tr=udp%3A%2F%2Fexodus.desync.com%3A6969","seeders":1,"leechers":1,"uploader":"albedo040","files":1,"time":1285865798,"description":"K-PAX*2001*[DVD9][PAL][ENG, POL]\n\nGeneral information:\nCountry: USA, Germany \nRelease: 22 October 2001\nGenre: Drama, Mystery, Sci-Fi \nDirector: Iain Softley\nScreenplay: Charles Leavitt, Gene Brewer (novel) \nOriginal Music: Edward Shearmur\nCinematography by: John Mathieson \nDuration: 1h 55mn\nLanguage: English, Polish\nSubtitles: Polish\nRating: 8.0/10 - 47102 votes\n\nCast:\nKevin Spacey  ...  Prot  \nJeff Bridges  ...  Dr. Mark Powell  \nMary McCormack  ...  Rachel Powell  \nAlfre Woodard  ...  Dr. Claudia Villars  \nDavid Patrick Kelly  ...  Howie  \nSaul Williams  ...  Ernie  \nPeter Gerety  ...  Sal  \nCelia Weston  ...  Doris Archer  \nAjay Naidu  ...  Dr. Chakraborty  \nTracy Vilar  ...  Maria  \nMelanee Murray  ...  Bess  \nJohn Toles-Bey  ...  Russell  \nKimberly Scott  ...  Joyce Trexler  \nConchata Ferrell  ...  Betty McAllister  \nVincent Laresca  ...  Navarro  \n\nPlot:\nProt is a patient at a mental hospital who claims to be from a far away planet. His psychiatrist tries to help him, only to begin to doubt his own explanations.\n\nSpecifications:\nGeneral\nFormat                           : MPEG-PS\nOverall bit rate                 : 7 501 Kbps\n\nVideo\nFormat                           : MPEG Video\nFormat version                   : Version 2\nFormat settings, BVOP            : Yes\nFormat settings, Matrix          : Default\nFormat settings, GOP             : M=3, N=12\nBit rate mode                    : Variable\nBit rate                         : 5 702 Kbps\nWidth                            : 720 pixels\nHeight                           : 576 pixels\nDisplay aspect ratio             : 16:9\nFrame rate                       : 25.000 fps\nStandard                         : PAL\n\nAudio 1\nFormat                           : AC-3\nFormat/Info                      : Audio Coding 3\nMode extension                   : CM (complete main)\nBit rate mode                    : Constant\nBit rate                         : 448 Kbps\nChannel(s)                       : 6 channels\nChannel positions                : Front: L C R, Side: L R, LFE\nSampling rate                    : 48.0 KHz\nBit depth                        : 16 bits\nVideo delay                      : -280ms\nStream size                      : 61.1 MiB (6%)\n\nAudio 2\nFormat                           : DTS\nFormat/Info                      : Digital Theater Systems\nBit rate mode                    : Constant\nBit rate                         : 755 Kbps\nChannel(s)                       : 6 channels\nChannel positions                : Front: L C R, Side: L R, LFE\nSampling rate                    : 48.0 KHz\nBit depth                        : 16 bits\nVideo delay                      : -323ms\nStream size                      : 103 MiB (10%)\n\nText\nFormat                           : RLE\nFormat/Info                      : Run-length encoding\nVideo delay                      : 2s 40ms\n","torrent":{"xt":"urn:btih:e9994553f4367675f025eb9b9deb2f3540ff4f6c","amp;dn":"K-PAX%2A2001%2A%5BDVD9%5D%5BPAL%5D%5BENG%2C+POL%5D","amp;tr":["udp%3A%2F%2Ftracker.openbittorrent.com%3A80","udp%3A%2F%2Fopen.demonii.com%3A1337","udp%3A%2F%2Ftracker.coppersurfer.tk%3A6969","udp%3A%2F%2Fexodus.desync.com%3A6969"],"infoHash":"e9994553f4367675f025eb9b9deb2f3540ff4f6c","infoHashBuffer":{"type":"Buffer","data":[233,153,69,83,244,54,118,117,240,37,235,155,157,235,47,53,64,255,79,108]},"announce":[],"urlList":[]}}